<?xml version="1.0" encoding="utf-8"?>
<!-- Generator: Adobe Illustrator 23.1.1, SVG Export Plug-In . SVG Version: 6.00 Build 0)  -->
<svg version="1.1" id="Layer_1" xmlns="http://www.w3.org/2000/svg" xmlns:xlink="http://www.w3.org/1999/xlink" x="0px" y="0px"
	 viewBox="0 0 100 35" style="enable-background:new 0 0 100 35;" xml:space="preserve">
<style type="text/css">
	.st0{fill:#02A9A4;}
	.st1{fill:#F7B119;}
	.st2{fill:#FFFFFF;}
</style>
<g>
	<path class="st0" d="M86.16,9.96c1.86,2.03,3.89,4.05,5.91,5.74c-2.03,1.69-4.05,3.72-5.91,5.74v5.91
		c3.21-3.55,6.42-6.76,9.97-9.46l2.87-2.2l-3.04-2.2c-3.38-2.7-6.76-5.91-9.8-9.46V9.96z"/>
	<path class="st1" d="M75.35,9.96c1.86,2.03,3.89,4.05,5.91,5.74c-2.03,1.69-4.05,3.72-5.91,5.74v5.91
		c3.21-3.55,6.42-6.76,9.97-9.46l2.87-2.2l-2.87-2.2c-3.38-2.7-6.76-5.91-9.97-9.46V9.96z"/>
	<g>
		<path class="st0" d="M15.89,8.67h-0.11L12.17,19H9.78L6.17,8.67H6.07L5.23,19.11H1.22L2.8,1.49h4.27l3.91,10.17l3.91-10.17h4.27
			l1.58,17.62h-4.01L15.89,8.67z"/>
	</g>
	<g>
		<path class="st0" d="M27.83,1.49c3.03,0,5.42,1.13,5.42,4.48c0,1.62-0.7,3.01-2.2,3.78c2.2,0.38,3.76,1.6,3.76,4.44
			c0,2.9-2.11,4.91-5.77,4.91h-6.68V1.49H27.83z M26.7,8.39c1.73,0,2.67-0.53,2.67-2.01c0-1.26-0.92-1.79-2.67-1.79h-0.32v3.8H26.7z
			 M27.64,16.01c1.9,0,2.95-0.58,2.95-1.96c0-1.62-1.05-2.2-2.95-2.2h-1.26v4.16H27.64z"/>
	</g>
	<g>
		<path class="st0" d="M50.32,8.67h-0.11L46.6,19h-2.39L40.6,8.67h-0.11l-0.83,10.44h-4.01l1.58-17.62h4.27l3.91,10.17l3.91-10.17
			h4.27l1.58,17.62h-4.01L50.32,8.67z"/>
	</g>
	<g>
		<path class="st0" d="M72.85,19.11h-4.31l-1.3-3.52h-6.71l-1.3,3.52h-4.31l7.11-17.62h3.72L72.85,19.11z M63.9,6.94h-0.04
			l-1.96,5.13h3.97L63.9,6.94z"/>
	</g>
	<g>
		<path class="st2" d="M1.67,30.97l-0.08,0.66h0.74l-0.04,0.32H1.55l-0.08,0.68H2.4l-0.04,0.33H1l0.29-2.33h1.36L2.6,30.97H1.67z"/>
	</g>
	<g>
		<path class="st2" d="M4.8,30.64l-0.29,2.33H4.3c-0.03,0-0.06-0.01-0.08-0.02c-0.02-0.01-0.04-0.03-0.06-0.06l-0.9-1.59
			c0,0.03,0,0.05-0.01,0.08c0,0.02,0,0.05-0.01,0.07l-0.18,1.52H2.69l0.29-2.33H3.2c0.02,0,0.03,0,0.05,0c0.01,0,0.02,0,0.03,0.01
			c0.01,0,0.02,0.01,0.03,0.02c0.01,0.01,0.02,0.02,0.02,0.04l0.91,1.59c0-0.03,0-0.06,0.01-0.09c0-0.03,0.01-0.06,0.01-0.08
			l0.18-1.49H4.8z"/>
	</g>
	<g>
		<path class="st2" d="M7.08,30.64l-1.15,2.33H5.55l-0.58-2.33H5.3c0.04,0,0.07,0.01,0.09,0.03c0.02,0.02,0.03,0.04,0.04,0.07
			l0.31,1.45c0.01,0.05,0.02,0.09,0.03,0.15c0.01,0.05,0.02,0.11,0.03,0.17c0.02-0.06,0.04-0.11,0.06-0.17
			c0.02-0.05,0.04-0.1,0.07-0.15l0.66-1.45c0.01-0.02,0.03-0.05,0.06-0.07c0.03-0.02,0.06-0.03,0.09-0.03H7.08z"/>
	</g>
	<g>
		<path class="st2" d="M7.48,32.97H7.06l0.28-2.33h0.42L7.48,32.97z"/>
	</g>
	<g>
		<path class="st2" d="M8.94,30.64c0.13,0,0.25,0.01,0.35,0.04c0.1,0.03,0.17,0.07,0.24,0.12c0.06,0.05,0.11,0.11,0.14,0.18
			c0.03,0.07,0.04,0.15,0.04,0.23c0,0.09-0.01,0.17-0.04,0.25c-0.03,0.08-0.06,0.15-0.11,0.22c-0.05,0.06-0.11,0.12-0.17,0.17
			c-0.07,0.05-0.15,0.09-0.23,0.11c0.02,0.02,0.05,0.03,0.07,0.05c0.02,0.02,0.04,0.05,0.05,0.08l0.42,0.87H9.3
			c-0.07,0-0.12-0.03-0.14-0.08l-0.34-0.76c-0.01-0.03-0.03-0.05-0.05-0.06c-0.02-0.01-0.05-0.02-0.09-0.02H8.52l-0.11,0.92H7.99
			l0.28-2.33H8.94z M8.8,31.75c0.08,0,0.16-0.01,0.22-0.04c0.06-0.02,0.11-0.06,0.15-0.1c0.04-0.04,0.07-0.09,0.09-0.15
			c0.02-0.06,0.03-0.12,0.03-0.18c0-0.1-0.03-0.18-0.09-0.24c-0.06-0.06-0.16-0.09-0.29-0.09H8.65l-0.1,0.79H8.8z"/>
	</g>
	<g>
		<path class="st2" d="M12.16,31.65c0,0.13-0.01,0.25-0.04,0.37c-0.03,0.12-0.07,0.23-0.12,0.33c-0.05,0.1-0.12,0.19-0.19,0.27
			c-0.08,0.08-0.16,0.15-0.25,0.21c-0.09,0.06-0.19,0.1-0.3,0.13c-0.11,0.03-0.22,0.05-0.34,0.05c-0.15,0-0.28-0.03-0.4-0.08
			c-0.12-0.05-0.22-0.13-0.3-0.22c-0.08-0.09-0.15-0.2-0.19-0.33c-0.04-0.13-0.07-0.26-0.07-0.41c0-0.13,0.01-0.25,0.04-0.37
			c0.03-0.12,0.07-0.22,0.12-0.32c0.05-0.1,0.12-0.19,0.19-0.27c0.07-0.08,0.16-0.15,0.25-0.21c0.09-0.06,0.19-0.1,0.3-0.13
			c0.11-0.03,0.22-0.05,0.34-0.05c0.15,0,0.28,0.03,0.4,0.08c0.12,0.05,0.22,0.13,0.3,0.22c0.08,0.09,0.15,0.2,0.19,0.33
			C12.14,31.36,12.16,31.5,12.16,31.65z M11.73,31.66c0-0.11-0.01-0.2-0.04-0.29c-0.03-0.09-0.06-0.16-0.11-0.22
			c-0.05-0.06-0.11-0.11-0.18-0.14c-0.07-0.03-0.15-0.05-0.24-0.05c-0.12,0-0.22,0.02-0.32,0.07c-0.1,0.05-0.18,0.11-0.24,0.2
			c-0.07,0.09-0.12,0.19-0.16,0.31c-0.04,0.12-0.06,0.26-0.06,0.41c0,0.11,0.01,0.2,0.04,0.29c0.03,0.09,0.06,0.16,0.11,0.22
			c0.05,0.06,0.11,0.11,0.18,0.14c0.07,0.03,0.15,0.05,0.24,0.05c0.12,0,0.22-0.02,0.32-0.07c0.1-0.05,0.18-0.11,0.25-0.2
			c0.07-0.09,0.12-0.19,0.16-0.31C11.71,31.94,11.73,31.81,11.73,31.66z"/>
	</g>
	<g>
		<path class="st2" d="M14.41,30.64l-0.29,2.33h-0.22c-0.03,0-0.06-0.01-0.08-0.02c-0.02-0.01-0.04-0.03-0.06-0.06l-0.9-1.59
			c0,0.03,0,0.05-0.01,0.08c0,0.02,0,0.05-0.01,0.07l-0.18,1.52H12.3l0.29-2.33h0.22c0.02,0,0.03,0,0.05,0c0.01,0,0.02,0,0.03,0.01
			c0.01,0,0.02,0.01,0.03,0.02c0.01,0.01,0.02,0.02,0.02,0.04l0.91,1.59c0-0.03,0-0.06,0.01-0.09c0-0.03,0.01-0.06,0.01-0.08
			l0.18-1.49H14.41z"/>
	</g>
	<g>
		<path class="st2" d="M17.17,30.64l-0.29,2.33h-0.37l0.19-1.52c0-0.03,0.01-0.06,0.02-0.09c0.01-0.03,0.01-0.07,0.02-0.1l-0.8,1.33
			c-0.02,0.03-0.04,0.05-0.07,0.07c-0.03,0.02-0.06,0.02-0.09,0.02h-0.06c-0.03,0-0.06-0.01-0.08-0.02
			c-0.02-0.02-0.04-0.04-0.05-0.07l-0.48-1.33c0,0.03,0,0.07,0,0.1c0,0.03,0,0.06-0.01,0.09l-0.18,1.53h-0.37l0.29-2.33h0.31
			c0.02,0,0.03,0,0.05,0c0.01,0,0.02,0,0.03,0.01c0.01,0,0.02,0.01,0.03,0.02c0.01,0.01,0.02,0.02,0.03,0.03l0.48,1.33
			c0.02,0.06,0.04,0.12,0.05,0.17c0.01-0.03,0.03-0.06,0.04-0.09c0.01-0.03,0.03-0.06,0.05-0.09l0.81-1.33
			c0.01-0.01,0.02-0.03,0.03-0.03c0.01-0.01,0.02-0.02,0.03-0.02c0.01,0,0.02-0.01,0.04-0.01c0.01,0,0.03,0,0.05,0H17.17z"/>
	</g>
	<g>
		<path class="st2" d="M17.97,30.97l-0.08,0.66h0.74l-0.04,0.32h-0.74l-0.08,0.68h0.94l-0.04,0.33H17.3l0.29-2.33h1.36l-0.04,0.33
			H17.97z"/>
	</g>
	<g>
		<path class="st2" d="M21.11,30.64l-0.29,2.33h-0.22c-0.03,0-0.06-0.01-0.08-0.02c-0.02-0.01-0.04-0.03-0.06-0.06l-0.9-1.59
			c0,0.03,0,0.05-0.01,0.08c0,0.02,0,0.05-0.01,0.07l-0.18,1.52H19l0.29-2.33h0.22c0.02,0,0.03,0,0.05,0c0.01,0,0.02,0,0.03,0.01
			c0.01,0,0.02,0.01,0.03,0.02c0.01,0.01,0.02,0.02,0.02,0.04l0.91,1.59c0-0.03,0-0.06,0.01-0.09c0-0.03,0.01-0.06,0.01-0.08
			l0.18-1.49H21.11z"/>
	</g>
	<g>
		<path class="st2" d="M22.98,30.98h-0.64l-0.25,1.99h-0.42l0.24-1.99h-0.64l0.04-0.34h1.7L22.98,30.98z"/>
	</g>
	<g>
		<path class="st2" d="M23.78,30.47h0.31v3.04h-0.31V30.47z"/>
	</g>
	<g>
		<path class="st2" d="M25.89,30.97l-0.08,0.66h0.74l-0.04,0.32h-0.74l-0.08,0.68h0.94l-0.04,0.33h-1.36l0.29-2.33h1.36l-0.04,0.33
			H25.89z"/>
	</g>
	<g>
		<path class="st2" d="M29.02,30.64l-0.29,2.33h-0.22c-0.03,0-0.06-0.01-0.08-0.02c-0.02-0.01-0.04-0.03-0.06-0.06l-0.9-1.59
			c0,0.03,0,0.05-0.01,0.08c0,0.02,0,0.05-0.01,0.07l-0.18,1.52h-0.37l0.29-2.33h0.22c0.02,0,0.03,0,0.05,0c0.01,0,0.02,0,0.03,0.01
			c0.01,0,0.02,0.01,0.03,0.02c0.01,0.01,0.02,0.02,0.02,0.04l0.91,1.59c0-0.03,0-0.06,0.01-0.09c0-0.03,0.01-0.06,0.01-0.08
			l0.18-1.49H29.02z"/>
	</g>
	<g>
		<path class="st2" d="M30.9,30.98h-0.64l-0.25,1.99H29.6l0.24-1.99H29.2l0.04-0.34h1.7L30.9,30.98z"/>
	</g>
	<g>
		<path class="st2" d="M31.87,30.64c0.13,0,0.25,0.01,0.35,0.04c0.1,0.03,0.17,0.07,0.24,0.12c0.06,0.05,0.11,0.11,0.14,0.18
			c0.03,0.07,0.04,0.15,0.04,0.23c0,0.09-0.01,0.17-0.04,0.25c-0.03,0.08-0.06,0.15-0.11,0.22c-0.05,0.06-0.11,0.12-0.17,0.17
			c-0.07,0.05-0.15,0.09-0.23,0.11c0.02,0.02,0.05,0.03,0.07,0.05c0.02,0.02,0.04,0.05,0.05,0.08l0.42,0.87h-0.38
			c-0.07,0-0.12-0.03-0.14-0.08l-0.34-0.76c-0.01-0.03-0.03-0.05-0.05-0.06c-0.02-0.01-0.05-0.02-0.09-0.02h-0.16l-0.11,0.92h-0.42
			l0.28-2.33H31.87z M31.73,31.75c0.08,0,0.16-0.01,0.22-0.04c0.06-0.02,0.11-0.06,0.15-0.1c0.04-0.04,0.07-0.09,0.09-0.15
			c0.02-0.06,0.03-0.12,0.03-0.18c0-0.1-0.03-0.18-0.09-0.24c-0.06-0.06-0.16-0.09-0.29-0.09h-0.25l-0.1,0.79H31.73z"/>
	</g>
	<g>
		<path class="st2" d="M33.54,30.97l-0.08,0.66h0.74l-0.04,0.32h-0.74l-0.08,0.68h0.94l-0.04,0.33h-1.36l0.29-2.33h1.36l-0.04,0.33
			H33.54z"/>
	</g>
	<g>
		<path class="st2" d="M35.56,30.64c0.13,0,0.25,0.02,0.34,0.05c0.1,0.03,0.17,0.08,0.23,0.13c0.06,0.06,0.11,0.12,0.14,0.2
			c0.03,0.08,0.04,0.16,0.04,0.26c0,0.12-0.02,0.24-0.06,0.35c-0.04,0.11-0.1,0.2-0.18,0.27c-0.08,0.08-0.18,0.14-0.29,0.18
			c-0.12,0.04-0.26,0.07-0.41,0.07h-0.29l-0.1,0.83h-0.42l0.28-2.33H35.56z M35.41,31.82c0.08,0,0.15-0.01,0.21-0.04
			c0.06-0.02,0.11-0.06,0.15-0.1c0.04-0.04,0.07-0.1,0.09-0.16c0.02-0.06,0.03-0.13,0.03-0.2c0-0.05-0.01-0.1-0.02-0.15
			c-0.02-0.04-0.04-0.08-0.07-0.11c-0.03-0.03-0.07-0.05-0.12-0.07c-0.05-0.02-0.1-0.03-0.17-0.03h-0.29l-0.1,0.86H35.41z"/>
	</g>
	<g>
		<path class="st2" d="M37.37,30.64c0.13,0,0.25,0.01,0.35,0.04c0.1,0.03,0.17,0.07,0.24,0.12c0.06,0.05,0.11,0.11,0.14,0.18
			c0.03,0.07,0.04,0.15,0.04,0.23c0,0.09-0.01,0.17-0.04,0.25c-0.03,0.08-0.06,0.15-0.11,0.22c-0.05,0.06-0.11,0.12-0.17,0.17
			c-0.07,0.05-0.15,0.09-0.23,0.11c0.02,0.02,0.05,0.03,0.07,0.05c0.02,0.02,0.04,0.05,0.05,0.08l0.42,0.87h-0.38
			c-0.07,0-0.12-0.03-0.14-0.08l-0.34-0.76c-0.01-0.03-0.03-0.05-0.05-0.06c-0.02-0.01-0.05-0.02-0.09-0.02h-0.16l-0.11,0.92h-0.42
			l0.28-2.33H37.37z M37.23,31.75c0.08,0,0.16-0.01,0.22-0.04c0.06-0.02,0.11-0.06,0.15-0.1c0.04-0.04,0.07-0.09,0.09-0.15
			c0.02-0.06,0.03-0.12,0.03-0.18c0-0.1-0.03-0.18-0.09-0.24c-0.06-0.06-0.16-0.09-0.29-0.09h-0.25l-0.1,0.79H37.23z"/>
	</g>
	<g>
		<path class="st2" d="M39.04,30.97l-0.08,0.66h0.74l-0.04,0.32h-0.74l-0.08,0.68h0.94l-0.04,0.33h-1.36l0.29-2.33h1.36l-0.04,0.33
			H39.04z"/>
	</g>
	<g>
		<path class="st2" d="M42.18,30.64l-0.29,2.33h-0.22c-0.03,0-0.06-0.01-0.08-0.02c-0.02-0.01-0.04-0.03-0.06-0.06l-0.9-1.59
			c0,0.03,0,0.05-0.01,0.08c0,0.02,0,0.05-0.01,0.07l-0.18,1.52h-0.37l0.29-2.33h0.22c0.02,0,0.03,0,0.05,0c0.01,0,0.02,0,0.03,0.01
			c0.01,0,0.02,0.01,0.03,0.02c0.01,0.01,0.02,0.02,0.02,0.04l0.91,1.59c0-0.03,0-0.06,0.01-0.09c0-0.03,0.01-0.06,0.01-0.08
			l0.18-1.49H42.18z"/>
	</g>
	<g>
		<path class="st2" d="M42.97,30.97l-0.08,0.66h0.74l-0.04,0.32h-0.74l-0.08,0.68h0.94l-0.04,0.33h-1.36l0.29-2.33h1.36l-0.04,0.33
			H42.97z"/>
	</g>
	<g>
		<path class="st2" d="M44.91,32.63c0.08,0,0.14-0.01,0.21-0.04c0.06-0.03,0.12-0.07,0.17-0.12c0.05-0.05,0.09-0.11,0.12-0.19
			s0.05-0.15,0.06-0.24l0.17-1.4h0.42l-0.17,1.4c-0.02,0.14-0.05,0.27-0.11,0.38c-0.06,0.12-0.13,0.22-0.22,0.3
			c-0.09,0.08-0.19,0.15-0.31,0.2c-0.12,0.05-0.24,0.07-0.38,0.07c-0.14,0-0.26-0.02-0.37-0.07c-0.1-0.05-0.19-0.11-0.26-0.2
			c-0.07-0.08-0.11-0.19-0.14-0.3c-0.03-0.12-0.03-0.24-0.01-0.38l0.17-1.4h0.42l-0.17,1.4c-0.01,0.09-0.01,0.17,0,0.24
			c0.01,0.07,0.04,0.14,0.07,0.19s0.08,0.09,0.14,0.12C44.77,32.62,44.84,32.63,44.91,32.63z"/>
	</g>
	<g>
		<path class="st2" d="M47.1,30.64c0.13,0,0.25,0.01,0.35,0.04c0.1,0.03,0.17,0.07,0.24,0.12c0.06,0.05,0.11,0.11,0.14,0.18
			c0.03,0.07,0.04,0.15,0.04,0.23c0,0.09-0.01,0.17-0.04,0.25c-0.03,0.08-0.06,0.15-0.11,0.22c-0.05,0.06-0.11,0.12-0.17,0.17
			c-0.07,0.05-0.15,0.09-0.23,0.11c0.02,0.02,0.05,0.03,0.07,0.05c0.02,0.02,0.04,0.05,0.05,0.08l0.42,0.87h-0.38
			c-0.07,0-0.12-0.03-0.14-0.08l-0.34-0.76c-0.01-0.03-0.03-0.05-0.05-0.06s-0.05-0.02-0.09-0.02h-0.16l-0.11,0.92h-0.42l0.28-2.33
			H47.1z M46.96,31.75c0.08,0,0.16-0.01,0.22-0.04c0.06-0.02,0.11-0.06,0.15-0.1c0.04-0.04,0.07-0.09,0.09-0.15s0.03-0.12,0.03-0.18
			c0-0.1-0.03-0.18-0.09-0.24c-0.06-0.06-0.16-0.09-0.29-0.09h-0.25l-0.1,0.79H46.96z"/>
	</g>
	<g>
		<path class="st2" d="M49.5,31.06c-0.02,0.02-0.03,0.04-0.04,0.05c-0.01,0.01-0.03,0.02-0.05,0.02c-0.02,0-0.04-0.01-0.07-0.03
			c-0.02-0.02-0.05-0.04-0.08-0.06c-0.03-0.02-0.07-0.04-0.11-0.06c-0.04-0.02-0.09-0.03-0.15-0.03c-0.06,0-0.11,0.01-0.15,0.03
			c-0.05,0.02-0.08,0.04-0.11,0.07s-0.05,0.07-0.07,0.11c-0.02,0.04-0.02,0.08-0.02,0.13c0,0.05,0.01,0.09,0.04,0.12
			c0.03,0.03,0.06,0.06,0.1,0.09c0.04,0.02,0.09,0.05,0.14,0.07c0.05,0.02,0.11,0.04,0.16,0.06c0.05,0.02,0.11,0.05,0.16,0.07
			c0.05,0.03,0.1,0.06,0.14,0.1c0.04,0.04,0.07,0.09,0.1,0.15c0.03,0.06,0.04,0.13,0.04,0.21c0,0.11-0.02,0.22-0.06,0.32
			c-0.04,0.1-0.1,0.19-0.17,0.27c-0.07,0.08-0.16,0.14-0.27,0.18c-0.11,0.04-0.22,0.07-0.35,0.07c-0.07,0-0.13-0.01-0.2-0.02
			c-0.07-0.01-0.13-0.04-0.19-0.06c-0.06-0.03-0.11-0.06-0.16-0.1c-0.05-0.04-0.09-0.08-0.13-0.13l0.15-0.2
			c0.01-0.02,0.03-0.03,0.05-0.04c0.02-0.01,0.04-0.01,0.05-0.01c0.02,0,0.03,0.01,0.05,0.02c0.02,0.01,0.03,0.02,0.05,0.04
			c0.02,0.02,0.04,0.03,0.06,0.05c0.02,0.02,0.05,0.04,0.08,0.05c0.03,0.02,0.06,0.03,0.1,0.04c0.04,0.01,0.08,0.02,0.13,0.02
			c0.12,0,0.22-0.03,0.29-0.1c0.07-0.07,0.1-0.16,0.1-0.29c0-0.05-0.01-0.1-0.04-0.13c-0.02-0.03-0.06-0.06-0.1-0.09
			c-0.04-0.02-0.09-0.04-0.14-0.06c-0.05-0.02-0.11-0.04-0.16-0.06s-0.11-0.04-0.16-0.07c-0.05-0.03-0.1-0.06-0.14-0.1
			c-0.04-0.04-0.07-0.09-0.1-0.15c-0.02-0.06-0.04-0.13-0.04-0.22c0-0.1,0.02-0.2,0.06-0.29c0.04-0.09,0.09-0.17,0.16-0.24
			c0.07-0.07,0.15-0.13,0.25-0.17c0.1-0.04,0.21-0.06,0.33-0.06c0.06,0,0.12,0.01,0.18,0.02c0.06,0.01,0.11,0.03,0.16,0.05
			c0.05,0.02,0.1,0.05,0.14,0.08c0.04,0.03,0.08,0.07,0.11,0.11L49.5,31.06z"/>
	</g>
	<g>
		<path class="st2" d="M51.81,30.64l-0.29,2.33H51.1l0.13-1.02h-0.98l-0.13,1.02H49.7l0.29-2.33h0.42l-0.12,1.01h0.98l0.13-1.01
			H51.81z"/>
	</g>
	<g>
		<path class="st2" d="M52.36,32.97h-0.42l0.28-2.33h0.42L52.36,32.97z"/>
	</g>
	<g>
		<path class="st2" d="M53.87,30.64c0.13,0,0.25,0.02,0.34,0.05c0.1,0.03,0.17,0.08,0.23,0.13c0.06,0.06,0.11,0.12,0.14,0.2
			c0.03,0.08,0.04,0.16,0.04,0.26c0,0.12-0.02,0.24-0.06,0.35c-0.04,0.11-0.1,0.2-0.18,0.27c-0.08,0.08-0.18,0.14-0.29,0.18
			c-0.12,0.04-0.26,0.07-0.41,0.07h-0.29l-0.1,0.83h-0.42l0.28-2.33H53.87z M53.73,31.82c0.08,0,0.15-0.01,0.21-0.04
			c0.06-0.02,0.11-0.06,0.15-0.1c0.04-0.04,0.07-0.1,0.09-0.16c0.02-0.06,0.03-0.13,0.03-0.2c0-0.05-0.01-0.1-0.02-0.15
			c-0.02-0.04-0.04-0.08-0.07-0.11C54.08,31.03,54.04,31,54,30.99c-0.05-0.02-0.1-0.03-0.17-0.03h-0.29l-0.1,0.86H53.73z"/>
	</g>
	<g>
		<path class="st2" d="M55.51,30.47h0.31v3.04h-0.31V30.47z"/>
	</g>
	<g>
		<path class="st2" d="M59.58,30.64l-0.29,2.33h-0.37l0.19-1.52c0-0.03,0.01-0.06,0.02-0.09c0.01-0.03,0.01-0.07,0.02-0.1l-0.8,1.33
			c-0.02,0.03-0.04,0.05-0.07,0.07c-0.03,0.02-0.06,0.02-0.09,0.02h-0.06c-0.03,0-0.06-0.01-0.08-0.02
			c-0.02-0.02-0.04-0.04-0.05-0.07l-0.48-1.33c0,0.03,0,0.07,0,0.1c0,0.03,0,0.06-0.01,0.09l-0.18,1.53h-0.37l0.29-2.33h0.31
			c0.02,0,0.03,0,0.05,0c0.01,0,0.02,0,0.03,0.01c0.01,0,0.02,0.01,0.03,0.02c0.01,0.01,0.02,0.02,0.03,0.03l0.48,1.33
			c0.02,0.06,0.04,0.12,0.05,0.17c0.01-0.03,0.03-0.06,0.04-0.09c0.01-0.03,0.03-0.06,0.05-0.09l0.81-1.33
			c0.01-0.01,0.02-0.03,0.03-0.03c0.01-0.01,0.02-0.02,0.03-0.02c0.01,0,0.02-0.01,0.04-0.01c0.01,0,0.03,0,0.05,0H59.58z"/>
	</g>
	<g>
		<path class="st2" d="M61.57,32.97h-0.32c-0.04,0-0.06-0.01-0.08-0.03c-0.02-0.02-0.03-0.04-0.04-0.07l-0.1-0.49h-0.87l-0.22,0.49
			c-0.01,0.02-0.03,0.05-0.06,0.07c-0.03,0.02-0.06,0.03-0.09,0.03h-0.33l1.13-2.33h0.43L61.57,32.97z M60.96,32.09l-0.16-0.8
			c-0.01-0.04-0.01-0.08-0.02-0.13c-0.01-0.05-0.02-0.1-0.03-0.16c-0.02,0.06-0.04,0.11-0.06,0.16c-0.02,0.05-0.04,0.09-0.05,0.13
			l-0.35,0.8H60.96z"/>
	</g>
	<g>
		<path class="st2" d="M62.72,30.64c0.13,0,0.25,0.01,0.35,0.04c0.1,0.03,0.18,0.07,0.24,0.12c0.06,0.05,0.11,0.11,0.14,0.18
			c0.03,0.07,0.04,0.15,0.04,0.23c0,0.09-0.01,0.17-0.04,0.25c-0.03,0.08-0.06,0.15-0.11,0.22s-0.11,0.12-0.17,0.17
			c-0.07,0.05-0.15,0.09-0.23,0.11c0.02,0.02,0.05,0.03,0.07,0.05c0.02,0.02,0.04,0.05,0.05,0.08l0.42,0.87h-0.38
			c-0.07,0-0.12-0.03-0.14-0.08l-0.34-0.76c-0.01-0.03-0.03-0.05-0.05-0.06c-0.02-0.01-0.05-0.02-0.09-0.02h-0.16l-0.11,0.92h-0.42
			l0.28-2.33H62.72z M62.58,31.75c0.08,0,0.16-0.01,0.22-0.04c0.06-0.02,0.11-0.06,0.15-0.1c0.04-0.04,0.07-0.09,0.09-0.15
			s0.03-0.12,0.03-0.18c0-0.1-0.03-0.18-0.09-0.24s-0.16-0.09-0.29-0.09h-0.25l-0.1,0.79H62.58z"/>
	</g>
	<g>
		<path class="st2" d="M64.31,31.62h0.09c0.04,0,0.07-0.01,0.1-0.02c0.03-0.01,0.05-0.03,0.07-0.06l0.67-0.82
			c0.03-0.04,0.06-0.06,0.09-0.07c0.03-0.01,0.07-0.02,0.11-0.02h0.36l-0.83,0.98c-0.02,0.03-0.05,0.06-0.07,0.08
			s-0.05,0.04-0.07,0.05c0.03,0.01,0.06,0.03,0.08,0.05c0.02,0.02,0.05,0.05,0.06,0.09l0.59,1.09H65.2c-0.02,0-0.05,0-0.06-0.01
			c-0.02,0-0.03-0.01-0.04-0.02c-0.01-0.01-0.02-0.02-0.03-0.03c-0.01-0.01-0.02-0.02-0.02-0.03l-0.48-0.87
			c-0.01-0.03-0.03-0.05-0.06-0.06c-0.02-0.01-0.06-0.02-0.11-0.02h-0.13l-0.13,1.03h-0.42l0.28-2.33h0.42L64.31,31.62z"/>
	</g>
	<g>
		<path class="st2" d="M66.47,30.97l-0.08,0.66h0.74l-0.04,0.32h-0.74l-0.08,0.68h0.94l-0.04,0.33H65.8l0.29-2.33h1.36l-0.04,0.33
			H66.47z"/>
	</g>
	<g>
		<path class="st2" d="M69.24,30.98H68.6l-0.25,1.99h-0.42l0.24-1.99h-0.64l0.04-0.34h1.7L69.24,30.98z"/>
	</g>
	<g>
		<path class="st2" d="M70.66,31.06c-0.02,0.02-0.03,0.04-0.04,0.05c-0.01,0.01-0.03,0.02-0.05,0.02c-0.02,0-0.04-0.01-0.07-0.03
			c-0.02-0.02-0.05-0.04-0.08-0.06c-0.03-0.02-0.07-0.04-0.11-0.06c-0.04-0.02-0.09-0.03-0.15-0.03c-0.06,0-0.11,0.01-0.15,0.03
			c-0.05,0.02-0.08,0.04-0.11,0.07c-0.03,0.03-0.05,0.07-0.07,0.11c-0.02,0.04-0.02,0.08-0.02,0.13c0,0.05,0.01,0.09,0.04,0.12
			c0.03,0.03,0.06,0.06,0.1,0.09c0.04,0.02,0.09,0.05,0.14,0.07c0.05,0.02,0.11,0.04,0.16,0.06c0.05,0.02,0.11,0.05,0.16,0.07
			c0.05,0.03,0.1,0.06,0.14,0.1c0.04,0.04,0.07,0.09,0.1,0.15c0.03,0.06,0.04,0.13,0.04,0.21c0,0.11-0.02,0.22-0.06,0.32
			c-0.04,0.1-0.1,0.19-0.17,0.27c-0.07,0.08-0.16,0.14-0.27,0.18c-0.11,0.04-0.22,0.07-0.35,0.07c-0.07,0-0.13-0.01-0.2-0.02
			c-0.07-0.01-0.13-0.04-0.19-0.06c-0.06-0.03-0.11-0.06-0.16-0.1c-0.05-0.04-0.09-0.08-0.13-0.13l0.15-0.2
			c0.01-0.02,0.03-0.03,0.05-0.04c0.02-0.01,0.04-0.01,0.05-0.01c0.02,0,0.03,0.01,0.05,0.02c0.02,0.01,0.03,0.02,0.05,0.04
			c0.02,0.02,0.04,0.03,0.06,0.05c0.02,0.02,0.05,0.04,0.08,0.05c0.03,0.02,0.06,0.03,0.1,0.04c0.04,0.01,0.08,0.02,0.13,0.02
			c0.12,0,0.22-0.03,0.29-0.1c0.07-0.07,0.1-0.16,0.1-0.29c0-0.05-0.01-0.1-0.04-0.13c-0.02-0.03-0.06-0.06-0.1-0.09
			c-0.04-0.02-0.09-0.04-0.14-0.06c-0.05-0.02-0.11-0.04-0.16-0.06s-0.11-0.04-0.16-0.07c-0.05-0.03-0.1-0.06-0.14-0.1
			c-0.04-0.04-0.07-0.09-0.1-0.15c-0.02-0.06-0.04-0.13-0.04-0.22c0-0.1,0.02-0.2,0.06-0.29c0.04-0.09,0.09-0.17,0.16-0.24
			c0.07-0.07,0.15-0.13,0.25-0.17c0.1-0.04,0.21-0.06,0.33-0.06c0.06,0,0.12,0.01,0.18,0.02c0.06,0.01,0.11,0.03,0.16,0.05
			c0.05,0.02,0.1,0.05,0.14,0.08c0.04,0.03,0.08,0.07,0.11,0.11L70.66,31.06z"/>
	</g>
	<g>
		<path class="st2" d="M71.63,30.47h0.31v3.04h-0.31V30.47z"/>
	</g>
	<g>
		<path class="st2" d="M73.74,30.97l-0.09,0.71h0.79l-0.05,0.33h-0.79l-0.12,0.95h-0.42l0.29-2.33h1.36l-0.04,0.33H73.74z"/>
	</g>
	<g>
		<path class="st2" d="M75.15,32.97h-0.42l0.28-2.33h0.42L75.15,32.97z"/>
	</g>
	<g>
		<path class="st2" d="M77.78,30.64l-0.29,2.33h-0.22c-0.03,0-0.06-0.01-0.08-0.02c-0.02-0.01-0.04-0.03-0.06-0.06l-0.9-1.59
			c0,0.03,0,0.05-0.01,0.08c0,0.02,0,0.05-0.01,0.07l-0.18,1.52h-0.37l0.29-2.33h0.22c0.02,0,0.03,0,0.05,0c0.01,0,0.02,0,0.03,0.01
			c0.01,0,0.02,0.01,0.03,0.02s0.02,0.02,0.02,0.04l0.91,1.59c0-0.03,0-0.06,0.01-0.09c0-0.03,0.01-0.06,0.01-0.08l0.18-1.49H77.78z
			"/>
	</g>
	<g>
		<path class="st2" d="M79.77,32.97h-0.32c-0.04,0-0.06-0.01-0.08-0.03c-0.02-0.02-0.03-0.04-0.04-0.07l-0.1-0.49h-0.87l-0.22,0.49
			c-0.01,0.02-0.03,0.05-0.06,0.07c-0.03,0.02-0.06,0.03-0.09,0.03h-0.33l1.13-2.33h0.43L79.77,32.97z M79.16,32.09L79,31.29
			c-0.01-0.04-0.01-0.08-0.02-0.13c-0.01-0.05-0.02-0.1-0.03-0.16c-0.02,0.06-0.04,0.11-0.06,0.16c-0.02,0.05-0.04,0.09-0.05,0.13
			l-0.35,0.8H79.16z"/>
	</g>
	<g>
		<path class="st2" d="M82.09,30.64l-0.29,2.33h-0.22c-0.03,0-0.06-0.01-0.08-0.02c-0.02-0.01-0.04-0.03-0.06-0.06l-0.9-1.59
			c0,0.03,0,0.05-0.01,0.08c0,0.02,0,0.05-0.01,0.07l-0.18,1.52h-0.37l0.29-2.33h0.22c0.02,0,0.03,0,0.05,0c0.01,0,0.02,0,0.03,0.01
			c0.01,0,0.02,0.01,0.03,0.02s0.02,0.02,0.02,0.04l0.91,1.59c0-0.03,0-0.06,0.01-0.09c0-0.03,0.01-0.06,0.01-0.08l0.18-1.49H82.09z
			"/>
	</g>
	<g>
		<path class="st2" d="M83.2,32.64c0.07,0,0.12-0.01,0.17-0.02c0.05-0.01,0.09-0.02,0.13-0.04c0.04-0.02,0.07-0.03,0.09-0.05
			c0.03-0.02,0.05-0.03,0.07-0.05c0.02-0.02,0.04-0.03,0.05-0.04s0.03-0.02,0.05-0.02c0.01,0,0.03,0,0.03,0.01
			c0.01,0.01,0.02,0.01,0.02,0.02l0.15,0.18c-0.1,0.12-0.22,0.21-0.36,0.27c-0.14,0.06-0.29,0.09-0.47,0.09
			c-0.14,0-0.27-0.03-0.38-0.08c-0.11-0.05-0.21-0.12-0.28-0.21c-0.08-0.09-0.14-0.2-0.18-0.32s-0.06-0.26-0.06-0.4
			c0-0.13,0.01-0.26,0.04-0.38c0.03-0.12,0.07-0.23,0.12-0.33s0.12-0.19,0.19-0.27c0.07-0.08,0.16-0.15,0.25-0.21
			c0.09-0.06,0.19-0.1,0.3-0.13c0.11-0.03,0.22-0.05,0.33-0.05c0.08,0,0.16,0.01,0.23,0.02c0.07,0.02,0.13,0.04,0.19,0.07
			c0.06,0.03,0.11,0.06,0.15,0.1c0.05,0.04,0.09,0.08,0.12,0.13l-0.15,0.17c-0.01,0.01-0.02,0.02-0.04,0.03
			c-0.01,0.01-0.03,0.01-0.05,0.01c-0.02,0-0.05-0.01-0.07-0.03c-0.02-0.02-0.05-0.04-0.08-0.06c-0.03-0.02-0.08-0.04-0.13-0.06
			c-0.05-0.02-0.12-0.03-0.21-0.03c-0.11,0-0.22,0.02-0.31,0.07c-0.1,0.05-0.18,0.11-0.25,0.2c-0.07,0.08-0.13,0.19-0.17,0.31
			c-0.04,0.12-0.06,0.25-0.06,0.4c0,0.11,0.01,0.21,0.04,0.29c0.03,0.09,0.07,0.16,0.11,0.22c0.05,0.06,0.11,0.11,0.17,0.14
			C83.05,32.62,83.12,32.64,83.2,32.64z"/>
	</g>
	<g>
		<path class="st2" d="M84.83,30.97l-0.08,0.66h0.74l-0.04,0.32h-0.74l-0.08,0.68h0.94l-0.04,0.33h-1.36l0.29-2.33h1.36l-0.04,0.33
			H84.83z"/>
	</g>
	<g>
		<path class="st1" d="M4.48,22.65v3.01H3.99v-1.95c0-0.08,0-0.16,0.01-0.25l-0.91,1.71c-0.04,0.08-0.11,0.12-0.2,0.12H2.81
			c-0.09,0-0.15-0.04-0.2-0.12l-0.92-1.72c0,0.05,0.01,0.09,0.01,0.14c0,0.04,0,0.09,0,0.12v1.95H1.21v-3.01h0.42
			c0.02,0,0.05,0,0.06,0c0.02,0,0.03,0,0.05,0.01c0.01,0.01,0.03,0.01,0.04,0.03c0.01,0.01,0.02,0.03,0.03,0.05l0.9,1.67
			c0.02,0.04,0.05,0.09,0.07,0.14c0.02,0.05,0.04,0.1,0.06,0.15c0.02-0.05,0.04-0.1,0.06-0.15c0.02-0.05,0.04-0.09,0.07-0.14
			l0.89-1.67c0.01-0.02,0.02-0.04,0.04-0.05c0.01-0.01,0.03-0.02,0.04-0.03c0.01-0.01,0.03-0.01,0.05-0.01c0.02,0,0.04,0,0.06,0
			H4.48z"/>
	</g>
	<g>
		<path class="st1" d="M5.4,24.66c0.01,0.11,0.03,0.2,0.06,0.28c0.03,0.08,0.07,0.15,0.12,0.2c0.05,0.05,0.11,0.09,0.18,0.12
			c0.07,0.03,0.14,0.04,0.23,0.04c0.08,0,0.16-0.01,0.22-0.03c0.06-0.02,0.11-0.04,0.16-0.06c0.05-0.02,0.08-0.05,0.12-0.06
			c0.03-0.02,0.07-0.03,0.1-0.03c0.04,0,0.08,0.02,0.1,0.05l0.15,0.19c-0.06,0.07-0.12,0.12-0.19,0.17
			c-0.07,0.05-0.14,0.08-0.22,0.11s-0.16,0.05-0.24,0.06c-0.08,0.01-0.16,0.02-0.23,0.02c-0.15,0-0.29-0.02-0.41-0.07
			S5.29,25.5,5.19,25.4c-0.09-0.1-0.17-0.22-0.22-0.36s-0.08-0.31-0.08-0.5c0-0.15,0.02-0.28,0.07-0.41C5,24.01,5.07,23.9,5.16,23.8
			c0.09-0.1,0.2-0.17,0.32-0.23c0.13-0.06,0.27-0.08,0.43-0.08c0.13,0,0.26,0.02,0.37,0.06c0.11,0.04,0.21,0.11,0.29,0.19
			c0.08,0.08,0.15,0.18,0.19,0.3c0.05,0.12,0.07,0.26,0.07,0.41c0,0.08-0.01,0.13-0.03,0.16c-0.02,0.03-0.05,0.04-0.1,0.04H5.4z
			 M6.38,24.35c0-0.07-0.01-0.13-0.03-0.19c-0.02-0.06-0.05-0.11-0.08-0.16c-0.04-0.04-0.09-0.08-0.14-0.11
			c-0.06-0.03-0.12-0.04-0.2-0.04c-0.15,0-0.27,0.04-0.35,0.13c-0.09,0.08-0.14,0.21-0.16,0.36H6.38z"/>
	</g>
	<g>
		<path class="st1" d="M9.11,23.6v0.19c0,0.06-0.04,0.1-0.11,0.11L8.8,23.94c0.03,0.07,0.04,0.15,0.04,0.24
			c0,0.11-0.02,0.2-0.06,0.29c-0.04,0.09-0.1,0.16-0.18,0.22c-0.08,0.06-0.16,0.11-0.27,0.14c-0.1,0.03-0.21,0.05-0.33,0.05
			c-0.04,0-0.08,0-0.12-0.01c-0.04,0-0.08-0.01-0.11-0.02c-0.07,0.04-0.1,0.09-0.1,0.14c0,0.04,0.02,0.07,0.06,0.09
			c0.04,0.02,0.09,0.03,0.16,0.04c0.07,0.01,0.14,0.01,0.22,0.02c0.08,0,0.17,0.01,0.26,0.01c0.09,0.01,0.17,0.02,0.26,0.04
			c0.08,0.02,0.16,0.04,0.22,0.08c0.07,0.04,0.12,0.09,0.16,0.15c0.04,0.06,0.06,0.15,0.06,0.25c0,0.09-0.02,0.19-0.07,0.28
			c-0.05,0.09-0.11,0.17-0.2,0.24c-0.09,0.07-0.2,0.13-0.33,0.17s-0.27,0.06-0.44,0.06c-0.16,0-0.3-0.02-0.42-0.05
			c-0.12-0.03-0.22-0.07-0.3-0.12c-0.08-0.05-0.14-0.11-0.18-0.18C7.1,26,7.08,25.93,7.08,25.85c0-0.1,0.03-0.18,0.09-0.25
			c0.06-0.07,0.14-0.12,0.25-0.16c-0.06-0.03-0.1-0.07-0.14-0.12s-0.05-0.11-0.05-0.19c0-0.03,0.01-0.06,0.02-0.1
			c0.01-0.03,0.03-0.07,0.05-0.1c0.02-0.03,0.05-0.06,0.09-0.09c0.03-0.03,0.08-0.06,0.12-0.08c-0.11-0.06-0.19-0.14-0.26-0.23
			c-0.06-0.1-0.09-0.21-0.09-0.34c0-0.11,0.02-0.2,0.06-0.29s0.1-0.16,0.18-0.22c0.08-0.06,0.17-0.11,0.27-0.14
			c0.1-0.03,0.22-0.05,0.34-0.05c0.09,0,0.18,0.01,0.26,0.03c0.08,0.02,0.15,0.05,0.22,0.08H9.11z M8.59,25.76
			c0-0.04-0.01-0.08-0.04-0.1c-0.02-0.03-0.06-0.05-0.1-0.06c-0.04-0.01-0.09-0.03-0.15-0.03c-0.06-0.01-0.12-0.01-0.18-0.02
			c-0.06,0-0.13-0.01-0.2-0.01c-0.07,0-0.14-0.01-0.2-0.02c-0.06,0.03-0.1,0.07-0.14,0.11c-0.04,0.04-0.05,0.09-0.05,0.15
			c0,0.04,0.01,0.07,0.03,0.11c0.02,0.03,0.05,0.06,0.09,0.08C7.68,26,7.74,26.02,7.8,26.03c0.07,0.01,0.15,0.02,0.24,0.02
			c0.1,0,0.18-0.01,0.25-0.02c0.07-0.01,0.13-0.03,0.17-0.06c0.05-0.03,0.08-0.06,0.1-0.09C8.58,25.84,8.59,25.8,8.59,25.76z
			 M8.01,24.54c0.06,0,0.12-0.01,0.17-0.03s0.09-0.04,0.12-0.07c0.03-0.03,0.05-0.07,0.07-0.11c0.02-0.04,0.02-0.09,0.02-0.14
			c0-0.11-0.03-0.19-0.09-0.25c-0.06-0.06-0.16-0.09-0.28-0.09c-0.13,0-0.22,0.03-0.28,0.09C7.66,24,7.63,24.09,7.63,24.19
			c0,0.05,0.01,0.1,0.02,0.14c0.02,0.04,0.04,0.08,0.07,0.11c0.03,0.03,0.07,0.06,0.12,0.07S7.95,24.54,8.01,24.54z"/>
	</g>
	<g>
		<path class="st1" d="M9.9,23.76c0.08-0.08,0.18-0.14,0.28-0.19c0.1-0.05,0.22-0.07,0.35-0.07c0.12,0,0.22,0.02,0.31,0.06
			c0.09,0.04,0.17,0.1,0.23,0.17c0.06,0.07,0.11,0.16,0.14,0.26c0.03,0.1,0.05,0.21,0.05,0.33v1.36h-0.51V24.3
			c0-0.13-0.03-0.23-0.09-0.3c-0.06-0.07-0.15-0.11-0.27-0.11c-0.09,0-0.17,0.02-0.25,0.06c-0.08,0.04-0.15,0.1-0.22,0.16v1.55H9.38
			v-3.1H9.9V23.76z"/>
	</g>
	<g>
		<path class="st1" d="M11.7,23.83c0.25-0.23,0.54-0.34,0.89-0.34c0.13,0,0.24,0.02,0.34,0.06s0.18,0.1,0.25,0.17
			c0.07,0.07,0.12,0.16,0.16,0.26c0.04,0.1,0.05,0.21,0.05,0.33v1.35h-0.23c-0.05,0-0.09-0.01-0.11-0.02
			c-0.03-0.01-0.05-0.04-0.06-0.09l-0.05-0.15c-0.05,0.05-0.11,0.09-0.16,0.13c-0.05,0.04-0.1,0.07-0.16,0.09
			c-0.06,0.02-0.12,0.04-0.18,0.06c-0.06,0.01-0.13,0.02-0.21,0.02c-0.09,0-0.17-0.01-0.25-0.04c-0.08-0.02-0.14-0.06-0.2-0.11
			c-0.06-0.05-0.1-0.11-0.13-0.18c-0.03-0.07-0.05-0.16-0.05-0.25c0-0.05,0.01-0.11,0.03-0.16c0.02-0.05,0.05-0.1,0.09-0.15
			c0.04-0.05,0.09-0.09,0.16-0.14c0.07-0.04,0.15-0.08,0.24-0.11c0.1-0.03,0.21-0.06,0.33-0.08c0.13-0.02,0.27-0.03,0.43-0.04v-0.13
			c0-0.14-0.03-0.25-0.09-0.32c-0.06-0.07-0.15-0.1-0.26-0.1c-0.08,0-0.15,0.01-0.21,0.03c-0.05,0.02-0.1,0.04-0.14,0.07
			c-0.04,0.02-0.08,0.05-0.11,0.07s-0.07,0.03-0.11,0.03c-0.04,0-0.07-0.01-0.09-0.03c-0.03-0.02-0.05-0.04-0.06-0.07L11.7,23.83z
			 M12.88,24.75c-0.15,0.01-0.27,0.02-0.38,0.04c-0.1,0.02-0.18,0.04-0.24,0.07c-0.06,0.03-0.1,0.06-0.13,0.1
			c-0.03,0.04-0.04,0.08-0.04,0.13c0,0.09,0.03,0.15,0.08,0.19c0.05,0.04,0.12,0.06,0.21,0.06c0.11,0,0.2-0.02,0.27-0.06
			c0.08-0.04,0.15-0.1,0.23-0.17V24.75z"/>
	</g>
	<g>
		<path class="st1" d="M14.45,22.57v3.1h-0.51v-3.1H14.45z"/>
	</g>
	<g>
		<path class="st1" d="M15.01,23.83c0.25-0.23,0.54-0.34,0.89-0.34c0.13,0,0.24,0.02,0.34,0.06c0.1,0.04,0.18,0.1,0.25,0.17
			c0.07,0.07,0.12,0.16,0.16,0.26c0.04,0.1,0.05,0.21,0.05,0.33v1.35h-0.23c-0.05,0-0.09-0.01-0.11-0.02
			c-0.03-0.01-0.05-0.04-0.06-0.09l-0.05-0.15c-0.05,0.05-0.11,0.09-0.16,0.13c-0.05,0.04-0.1,0.07-0.16,0.09
			c-0.06,0.02-0.12,0.04-0.18,0.06c-0.06,0.01-0.13,0.02-0.21,0.02c-0.09,0-0.17-0.01-0.25-0.04c-0.08-0.02-0.14-0.06-0.2-0.11
			c-0.06-0.05-0.1-0.11-0.13-0.18c-0.03-0.07-0.05-0.16-0.05-0.25c0-0.05,0.01-0.11,0.03-0.16c0.02-0.05,0.05-0.1,0.09-0.15
			c0.04-0.05,0.09-0.09,0.16-0.14c0.07-0.04,0.15-0.08,0.24-0.11c0.1-0.03,0.21-0.06,0.33-0.08c0.13-0.02,0.27-0.03,0.43-0.04v-0.13
			c0-0.14-0.03-0.25-0.09-0.32c-0.06-0.07-0.15-0.1-0.26-0.1c-0.08,0-0.15,0.01-0.21,0.03c-0.05,0.02-0.1,0.04-0.14,0.07
			c-0.04,0.02-0.08,0.05-0.11,0.07s-0.07,0.03-0.11,0.03c-0.04,0-0.07-0.01-0.09-0.03c-0.03-0.02-0.05-0.04-0.06-0.07L15.01,23.83z
			 M16.19,24.75c-0.15,0.01-0.27,0.02-0.38,0.04c-0.1,0.02-0.18,0.04-0.24,0.07c-0.06,0.03-0.1,0.06-0.13,0.1
			c-0.03,0.04-0.04,0.08-0.04,0.13c0,0.09,0.03,0.15,0.08,0.19c0.05,0.04,0.12,0.06,0.21,0.06c0.11,0,0.2-0.02,0.27-0.06
			c0.08-0.04,0.15-0.1,0.23-0.17V24.75z"/>
	</g>
	<g>
		<path class="st1" d="M19.18,23.53l-1.17,2.73c-0.02,0.04-0.04,0.06-0.06,0.08c-0.02,0.02-0.06,0.03-0.11,0.03h-0.38l0.4-0.86
			L17,23.53h0.45c0.04,0,0.07,0.01,0.09,0.03c0.02,0.02,0.04,0.04,0.05,0.07l0.45,1.11c0.02,0.04,0.03,0.08,0.04,0.11
			s0.02,0.08,0.03,0.11c0.01-0.04,0.03-0.08,0.04-0.12c0.01-0.04,0.03-0.08,0.04-0.11l0.43-1.11c0.01-0.03,0.03-0.05,0.06-0.07
			c0.03-0.02,0.05-0.03,0.09-0.03H19.18z"/>
	</g>
	<g>
		<path class="st1" d="M19.41,23.83c0.25-0.23,0.54-0.34,0.89-0.34c0.13,0,0.24,0.02,0.34,0.06c0.1,0.04,0.18,0.1,0.25,0.17
			c0.07,0.07,0.12,0.16,0.16,0.26c0.04,0.1,0.05,0.21,0.05,0.33v1.35h-0.23c-0.05,0-0.09-0.01-0.11-0.02
			c-0.03-0.01-0.05-0.04-0.06-0.09l-0.05-0.15c-0.05,0.05-0.11,0.09-0.16,0.13c-0.05,0.04-0.1,0.07-0.16,0.09
			c-0.06,0.02-0.12,0.04-0.18,0.06c-0.06,0.01-0.13,0.02-0.21,0.02c-0.09,0-0.17-0.01-0.25-0.04c-0.08-0.02-0.14-0.06-0.2-0.11
			c-0.06-0.05-0.1-0.11-0.13-0.18c-0.03-0.07-0.05-0.16-0.05-0.25c0-0.05,0.01-0.11,0.03-0.16c0.02-0.05,0.05-0.1,0.09-0.15
			c0.04-0.05,0.09-0.09,0.16-0.14c0.07-0.04,0.15-0.08,0.24-0.11c0.1-0.03,0.21-0.06,0.33-0.08c0.13-0.02,0.27-0.03,0.43-0.04v-0.13
			c0-0.14-0.03-0.25-0.09-0.32c-0.06-0.07-0.15-0.1-0.26-0.1c-0.08,0-0.15,0.01-0.21,0.03c-0.05,0.02-0.1,0.04-0.14,0.07
			c-0.04,0.02-0.08,0.05-0.11,0.07s-0.07,0.03-0.11,0.03c-0.04,0-0.07-0.01-0.09-0.03c-0.03-0.02-0.05-0.04-0.06-0.07L19.41,23.83z
			 M20.59,24.75c-0.15,0.01-0.27,0.02-0.38,0.04c-0.1,0.02-0.18,0.04-0.24,0.07c-0.06,0.03-0.1,0.06-0.13,0.1
			c-0.03,0.04-0.04,0.08-0.04,0.13c0,0.09,0.03,0.15,0.08,0.19c0.05,0.04,0.12,0.06,0.21,0.06c0.11,0,0.2-0.02,0.27-0.06
			c0.08-0.04,0.15-0.1,0.23-0.17V24.75z"/>
	</g>
	<g>
		<path class="st1" d="M23.57,22.65c0.2,0,0.37,0.02,0.51,0.06c0.14,0.04,0.26,0.09,0.35,0.16c0.09,0.07,0.16,0.15,0.2,0.25
			c0.04,0.1,0.06,0.21,0.06,0.33c0,0.07-0.01,0.14-0.03,0.2c-0.02,0.06-0.05,0.13-0.1,0.18c-0.04,0.06-0.1,0.11-0.17,0.15
			s-0.15,0.08-0.24,0.12c0.41,0.09,0.62,0.32,0.62,0.67c0,0.13-0.02,0.25-0.07,0.35c-0.05,0.11-0.12,0.2-0.21,0.28
			c-0.09,0.08-0.21,0.14-0.34,0.18c-0.14,0.04-0.29,0.07-0.47,0.07h-1.14v-3.01H23.57z M23.09,23.09v0.87h0.45
			c0.19,0,0.34-0.03,0.43-0.1c0.1-0.07,0.15-0.18,0.15-0.33c0-0.16-0.04-0.27-0.13-0.34c-0.09-0.07-0.23-0.1-0.42-0.1H23.09z
			 M23.66,25.23c0.1,0,0.19-0.01,0.26-0.04c0.07-0.02,0.13-0.06,0.17-0.1c0.04-0.04,0.07-0.09,0.09-0.15
			c0.02-0.06,0.03-0.11,0.03-0.18c0-0.07-0.01-0.12-0.03-0.18c-0.02-0.05-0.05-0.1-0.1-0.13c-0.04-0.04-0.1-0.06-0.17-0.08
			s-0.15-0.03-0.25-0.03h-0.56v0.88H23.66z"/>
	</g>
	<g>
		<path class="st1" d="M25.11,23.83c0.25-0.23,0.54-0.34,0.89-0.34c0.13,0,0.24,0.02,0.34,0.06c0.1,0.04,0.18,0.1,0.25,0.17
			c0.07,0.07,0.12,0.16,0.16,0.26c0.04,0.1,0.05,0.21,0.05,0.33v1.35h-0.23c-0.05,0-0.09-0.01-0.11-0.02
			c-0.03-0.01-0.05-0.04-0.06-0.09l-0.05-0.15c-0.05,0.05-0.11,0.09-0.16,0.13c-0.05,0.04-0.1,0.07-0.16,0.09
			c-0.06,0.02-0.12,0.04-0.18,0.06c-0.06,0.01-0.13,0.02-0.21,0.02c-0.09,0-0.17-0.01-0.25-0.04c-0.08-0.02-0.14-0.06-0.2-0.11
			c-0.06-0.05-0.1-0.11-0.13-0.18c-0.03-0.07-0.05-0.16-0.05-0.25c0-0.05,0.01-0.11,0.03-0.16c0.02-0.05,0.05-0.1,0.09-0.15
			c0.04-0.05,0.09-0.09,0.16-0.14c0.07-0.04,0.15-0.08,0.24-0.11c0.1-0.03,0.21-0.06,0.33-0.08c0.13-0.02,0.27-0.03,0.43-0.04v-0.13
			c0-0.14-0.03-0.25-0.09-0.32c-0.06-0.07-0.15-0.1-0.26-0.1c-0.08,0-0.15,0.01-0.21,0.03c-0.05,0.02-0.1,0.04-0.14,0.07
			c-0.04,0.02-0.08,0.05-0.11,0.07s-0.07,0.03-0.11,0.03c-0.04,0-0.07-0.01-0.09-0.03c-0.03-0.02-0.05-0.04-0.06-0.07L25.11,23.83z
			 M26.29,24.75c-0.15,0.01-0.27,0.02-0.38,0.04c-0.1,0.02-0.18,0.04-0.24,0.07c-0.06,0.03-0.1,0.06-0.13,0.1
			c-0.03,0.04-0.04,0.08-0.04,0.13c0,0.09,0.03,0.15,0.08,0.19c0.05,0.04,0.12,0.06,0.21,0.06c0.11,0,0.2-0.02,0.27-0.06
			c0.08-0.04,0.15-0.1,0.23-0.17V24.75z"/>
	</g>
	<g>
		<path class="st1" d="M28.65,23.94c-0.01,0.02-0.03,0.04-0.04,0.05C28.59,24,28.57,24,28.54,24c-0.03,0-0.05-0.01-0.08-0.02
			c-0.03-0.01-0.06-0.03-0.1-0.05c-0.04-0.02-0.08-0.03-0.13-0.05c-0.05-0.01-0.1-0.02-0.17-0.02c-0.1,0-0.18,0.02-0.24,0.06
			s-0.09,0.1-0.09,0.17c0,0.05,0.01,0.08,0.04,0.12c0.03,0.03,0.07,0.06,0.12,0.08c0.05,0.02,0.11,0.04,0.17,0.06
			c0.06,0.02,0.13,0.04,0.19,0.06c0.06,0.02,0.13,0.05,0.19,0.08c0.06,0.03,0.12,0.06,0.17,0.11c0.05,0.04,0.09,0.1,0.12,0.16
			c0.03,0.06,0.04,0.13,0.04,0.22c0,0.1-0.02,0.2-0.06,0.28c-0.04,0.09-0.09,0.16-0.16,0.23c-0.07,0.06-0.16,0.11-0.27,0.15
			c-0.11,0.04-0.23,0.05-0.37,0.05c-0.07,0-0.15-0.01-0.22-0.02c-0.07-0.01-0.14-0.03-0.2-0.06c-0.06-0.02-0.12-0.05-0.18-0.08
			c-0.05-0.03-0.1-0.07-0.14-0.1l0.12-0.2c0.02-0.02,0.03-0.04,0.05-0.05c0.02-0.01,0.05-0.02,0.08-0.02c0.03,0,0.06,0.01,0.09,0.03
			c0.03,0.02,0.06,0.04,0.1,0.06c0.04,0.02,0.08,0.04,0.13,0.06c0.05,0.02,0.11,0.03,0.19,0.03c0.06,0,0.11-0.01,0.16-0.02
			c0.04-0.01,0.08-0.03,0.11-0.06c0.03-0.02,0.05-0.05,0.06-0.08c0.01-0.03,0.02-0.06,0.02-0.1c0-0.05-0.01-0.09-0.04-0.12
			c-0.03-0.03-0.07-0.06-0.12-0.08c-0.05-0.02-0.11-0.04-0.17-0.06c-0.06-0.02-0.13-0.04-0.19-0.06c-0.07-0.02-0.13-0.05-0.19-0.08
			c-0.06-0.03-0.12-0.07-0.17-0.11c-0.05-0.05-0.09-0.1-0.12-0.17c-0.03-0.07-0.04-0.15-0.04-0.24c0-0.09,0.02-0.17,0.05-0.25
			c0.03-0.08,0.09-0.15,0.15-0.21s0.15-0.11,0.25-0.14s0.22-0.05,0.35-0.05c0.15,0,0.28,0.02,0.4,0.07c0.12,0.05,0.22,0.11,0.3,0.19
			L28.65,23.94z"/>
	</g>
	<g>
		<path class="st1" d="M29.77,22.9c0,0.04-0.01,0.09-0.03,0.13c-0.02,0.04-0.04,0.07-0.07,0.1c-0.03,0.03-0.06,0.05-0.11,0.07
			c-0.04,0.02-0.08,0.03-0.13,0.03c-0.04,0-0.09-0.01-0.13-0.03c-0.04-0.02-0.07-0.04-0.1-0.07c-0.03-0.03-0.05-0.06-0.07-0.1
			c-0.02-0.04-0.03-0.08-0.03-0.13c0-0.05,0.01-0.09,0.03-0.13c0.02-0.04,0.04-0.08,0.07-0.1c0.03-0.03,0.06-0.05,0.1-0.07
			c0.04-0.02,0.08-0.03,0.13-0.03c0.05,0,0.09,0.01,0.13,0.03c0.04,0.02,0.08,0.04,0.11,0.07c0.03,0.03,0.05,0.06,0.07,0.1
			C29.76,22.81,29.77,22.86,29.77,22.9z M29.69,23.53v2.14h-0.52v-2.14H29.69z"/>
	</g>
	<g>
		<path class="st1" d="M30.77,23.79c0.04-0.04,0.09-0.08,0.14-0.12c0.05-0.04,0.1-0.07,0.15-0.09c0.05-0.03,0.11-0.05,0.17-0.06
			c0.06-0.01,0.13-0.02,0.2-0.02c0.12,0,0.22,0.02,0.31,0.06c0.09,0.04,0.17,0.1,0.23,0.17c0.06,0.07,0.11,0.16,0.14,0.26
			c0.03,0.1,0.05,0.21,0.05,0.33v1.36h-0.51V24.3c0-0.13-0.03-0.23-0.09-0.3c-0.06-0.07-0.15-0.11-0.27-0.11
			c-0.09,0-0.17,0.02-0.25,0.06c-0.08,0.04-0.15,0.1-0.22,0.16v1.55h-0.51v-2.14h0.31c0.07,0,0.11,0.03,0.13,0.09L30.77,23.79z"/>
	</g>
	<g>
		<path class="st1" d="M36.81,22.65v3.01h-0.49v-1.95c0-0.08,0-0.16,0.01-0.25l-0.91,1.71c-0.04,0.08-0.11,0.12-0.2,0.12h-0.08
			c-0.09,0-0.15-0.04-0.2-0.12l-0.92-1.72c0,0.05,0.01,0.09,0.01,0.14c0,0.04,0,0.09,0,0.12v1.95h-0.49v-3.01h0.42
			c0.02,0,0.05,0,0.06,0c0.02,0,0.03,0,0.05,0.01c0.01,0.01,0.03,0.01,0.04,0.03c0.01,0.01,0.02,0.03,0.03,0.05l0.9,1.67
			c0.02,0.04,0.05,0.09,0.07,0.14c0.02,0.05,0.04,0.1,0.06,0.15c0.02-0.05,0.04-0.1,0.06-0.15c0.02-0.05,0.04-0.09,0.07-0.14
			l0.89-1.67c0.01-0.02,0.02-0.04,0.04-0.05c0.01-0.01,0.03-0.02,0.04-0.03c0.01-0.01,0.03-0.01,0.05-0.01c0.02,0,0.04,0,0.06,0
			H36.81z"/>
	</g>
	<g>
		<path class="st1" d="M37.28,23.83c0.25-0.23,0.54-0.34,0.89-0.34c0.13,0,0.24,0.02,0.34,0.06s0.18,0.1,0.25,0.17
			c0.07,0.07,0.12,0.16,0.16,0.26c0.04,0.1,0.05,0.21,0.05,0.33v1.35h-0.23c-0.05,0-0.09-0.01-0.11-0.02
			c-0.03-0.01-0.05-0.04-0.06-0.09l-0.05-0.15c-0.05,0.05-0.11,0.09-0.16,0.13c-0.05,0.04-0.1,0.07-0.16,0.09
			c-0.06,0.02-0.12,0.04-0.18,0.06c-0.06,0.01-0.13,0.02-0.21,0.02c-0.09,0-0.17-0.01-0.25-0.04c-0.08-0.02-0.14-0.06-0.2-0.11
			c-0.06-0.05-0.1-0.11-0.13-0.18c-0.03-0.07-0.05-0.16-0.05-0.25c0-0.05,0.01-0.11,0.03-0.16c0.02-0.05,0.05-0.1,0.09-0.15
			c0.04-0.05,0.09-0.09,0.16-0.14c0.07-0.04,0.15-0.08,0.24-0.11c0.1-0.03,0.21-0.06,0.33-0.08c0.13-0.02,0.27-0.03,0.43-0.04v-0.13
			c0-0.14-0.03-0.25-0.09-0.32c-0.06-0.07-0.15-0.1-0.26-0.1c-0.08,0-0.15,0.01-0.21,0.03c-0.05,0.02-0.1,0.04-0.14,0.07
			c-0.04,0.02-0.08,0.05-0.11,0.07s-0.07,0.03-0.11,0.03c-0.04,0-0.07-0.01-0.09-0.03c-0.03-0.02-0.05-0.04-0.06-0.07L37.28,23.83z
			 M38.46,24.75c-0.15,0.01-0.27,0.02-0.38,0.04c-0.1,0.02-0.18,0.04-0.24,0.07c-0.06,0.03-0.1,0.06-0.13,0.1
			c-0.03,0.04-0.04,0.08-0.04,0.13c0,0.09,0.03,0.15,0.08,0.19c0.05,0.04,0.12,0.06,0.21,0.06c0.11,0,0.2-0.02,0.27-0.06
			c0.08-0.04,0.15-0.1,0.23-0.17V24.75z"/>
	</g>
	<g>
		<path class="st1" d="M40,23.79c0.04-0.04,0.09-0.08,0.14-0.12s0.1-0.07,0.15-0.09c0.05-0.03,0.11-0.05,0.17-0.06
			c0.06-0.01,0.13-0.02,0.2-0.02c0.12,0,0.22,0.02,0.31,0.06c0.09,0.04,0.17,0.1,0.23,0.17c0.06,0.07,0.11,0.16,0.14,0.26
			c0.03,0.1,0.05,0.21,0.05,0.33v1.36h-0.51V24.3c0-0.13-0.03-0.23-0.09-0.3c-0.06-0.07-0.15-0.11-0.27-0.11
			c-0.09,0-0.17,0.02-0.25,0.06c-0.08,0.04-0.15,0.1-0.22,0.16v1.55h-0.51v-2.14h0.31c0.07,0,0.11,0.03,0.13,0.09L40,23.79z"/>
	</g>
	<g>
		<path class="st1" d="M41.83,23.83c0.25-0.23,0.54-0.34,0.89-0.34c0.13,0,0.24,0.02,0.34,0.06c0.1,0.04,0.18,0.1,0.25,0.17
			c0.07,0.07,0.12,0.16,0.16,0.26c0.04,0.1,0.05,0.21,0.05,0.33v1.35h-0.23c-0.05,0-0.09-0.01-0.11-0.02
			c-0.03-0.01-0.05-0.04-0.06-0.09l-0.05-0.15c-0.05,0.05-0.11,0.09-0.16,0.13c-0.05,0.04-0.1,0.07-0.16,0.09
			c-0.06,0.02-0.12,0.04-0.18,0.06c-0.06,0.01-0.13,0.02-0.21,0.02c-0.09,0-0.17-0.01-0.25-0.04c-0.08-0.02-0.14-0.06-0.2-0.11
			c-0.06-0.05-0.1-0.11-0.13-0.18c-0.03-0.07-0.05-0.16-0.05-0.25c0-0.05,0.01-0.11,0.03-0.16c0.02-0.05,0.05-0.1,0.09-0.15
			c0.04-0.05,0.09-0.09,0.16-0.14c0.07-0.04,0.15-0.08,0.24-0.11c0.1-0.03,0.21-0.06,0.33-0.08c0.13-0.02,0.27-0.03,0.43-0.04v-0.13
			c0-0.14-0.03-0.25-0.09-0.32c-0.06-0.07-0.15-0.1-0.26-0.1c-0.08,0-0.15,0.01-0.21,0.03c-0.05,0.02-0.1,0.04-0.14,0.07
			c-0.04,0.02-0.08,0.05-0.11,0.07s-0.07,0.03-0.11,0.03c-0.04,0-0.07-0.01-0.09-0.03c-0.03-0.02-0.05-0.04-0.06-0.07L41.83,23.83z
			 M43.01,24.75c-0.15,0.01-0.27,0.02-0.38,0.04c-0.1,0.02-0.18,0.04-0.24,0.07c-0.06,0.03-0.1,0.06-0.13,0.1
			c-0.03,0.04-0.04,0.08-0.04,0.13c0,0.09,0.03,0.15,0.08,0.19c0.05,0.04,0.12,0.06,0.21,0.06c0.11,0,0.2-0.02,0.27-0.06
			c0.08-0.04,0.15-0.1,0.23-0.17V24.75z"/>
	</g>
	<g>
		<path class="st1" d="M45.94,23.6v0.19c0,0.06-0.04,0.1-0.11,0.11l-0.19,0.04c0.03,0.07,0.04,0.15,0.04,0.24
			c0,0.11-0.02,0.2-0.06,0.29c-0.04,0.09-0.1,0.16-0.18,0.22c-0.08,0.06-0.16,0.11-0.27,0.14c-0.1,0.03-0.21,0.05-0.33,0.05
			c-0.04,0-0.08,0-0.12-0.01c-0.04,0-0.08-0.01-0.11-0.02c-0.07,0.04-0.1,0.09-0.1,0.14c0,0.04,0.02,0.07,0.06,0.09
			c0.04,0.02,0.09,0.03,0.16,0.04c0.07,0.01,0.14,0.01,0.22,0.02c0.08,0,0.17,0.01,0.26,0.01c0.09,0.01,0.17,0.02,0.26,0.04
			c0.08,0.02,0.16,0.04,0.22,0.08c0.07,0.04,0.12,0.09,0.16,0.15c0.04,0.06,0.06,0.15,0.06,0.25c0,0.09-0.02,0.19-0.07,0.28
			c-0.05,0.09-0.11,0.17-0.2,0.24c-0.09,0.07-0.2,0.13-0.33,0.17c-0.13,0.04-0.27,0.06-0.44,0.06c-0.16,0-0.3-0.02-0.42-0.05
			c-0.12-0.03-0.22-0.07-0.3-0.12c-0.08-0.05-0.14-0.11-0.18-0.18s-0.06-0.14-0.06-0.21c0-0.1,0.03-0.18,0.09-0.25
			c0.06-0.07,0.14-0.12,0.25-0.16c-0.06-0.03-0.1-0.07-0.14-0.12s-0.05-0.11-0.05-0.19c0-0.03,0.01-0.06,0.02-0.1
			c0.01-0.03,0.03-0.07,0.05-0.1c0.02-0.03,0.05-0.06,0.09-0.09c0.03-0.03,0.08-0.06,0.12-0.08c-0.11-0.06-0.19-0.14-0.26-0.23
			c-0.06-0.1-0.09-0.21-0.09-0.34c0-0.11,0.02-0.2,0.06-0.29c0.04-0.09,0.1-0.16,0.18-0.22c0.08-0.06,0.17-0.11,0.27-0.14
			c0.1-0.03,0.22-0.05,0.34-0.05c0.09,0,0.18,0.01,0.26,0.03s0.15,0.05,0.22,0.08H45.94z M45.43,25.76c0-0.04-0.01-0.08-0.04-0.1
			c-0.02-0.03-0.06-0.05-0.1-0.06c-0.04-0.01-0.09-0.03-0.15-0.03c-0.06-0.01-0.12-0.01-0.18-0.02c-0.06,0-0.13-0.01-0.2-0.01
			c-0.07,0-0.14-0.01-0.2-0.02c-0.06,0.03-0.1,0.07-0.14,0.11c-0.04,0.04-0.05,0.09-0.05,0.15c0,0.04,0.01,0.07,0.03,0.11
			c0.02,0.03,0.05,0.06,0.09,0.08c0.04,0.02,0.09,0.04,0.16,0.06c0.07,0.01,0.15,0.02,0.24,0.02c0.1,0,0.18-0.01,0.25-0.02
			c0.07-0.01,0.13-0.03,0.17-0.06c0.05-0.03,0.08-0.06,0.1-0.09C45.41,25.84,45.43,25.8,45.43,25.76z M44.84,24.54
			c0.06,0,0.12-0.01,0.17-0.03c0.05-0.02,0.09-0.04,0.12-0.07c0.03-0.03,0.05-0.07,0.07-0.11c0.02-0.04,0.02-0.09,0.02-0.14
			c0-0.11-0.03-0.19-0.09-0.25c-0.06-0.06-0.16-0.09-0.28-0.09c-0.13,0-0.22,0.03-0.28,0.09c-0.06,0.06-0.09,0.15-0.09,0.25
			c0,0.05,0.01,0.1,0.02,0.14c0.02,0.04,0.04,0.08,0.07,0.11c0.03,0.03,0.07,0.06,0.12,0.07S44.78,24.54,44.84,24.54z"/>
	</g>
	<g>
		<path class="st1" d="M46.61,24.66c0.01,0.11,0.03,0.2,0.06,0.28c0.03,0.08,0.07,0.15,0.12,0.2c0.05,0.05,0.11,0.09,0.18,0.12
			c0.07,0.03,0.14,0.04,0.23,0.04c0.08,0,0.16-0.01,0.22-0.03c0.06-0.02,0.11-0.04,0.16-0.06c0.05-0.02,0.08-0.05,0.12-0.06
			s0.07-0.03,0.1-0.03c0.04,0,0.08,0.02,0.1,0.05l0.15,0.19c-0.06,0.07-0.12,0.12-0.19,0.17c-0.07,0.05-0.14,0.08-0.22,0.11
			s-0.16,0.05-0.24,0.06c-0.08,0.01-0.16,0.02-0.23,0.02c-0.15,0-0.29-0.02-0.41-0.07c-0.13-0.05-0.24-0.12-0.33-0.22
			c-0.09-0.1-0.17-0.22-0.22-0.36s-0.08-0.31-0.08-0.5c0-0.15,0.02-0.28,0.07-0.41c0.05-0.13,0.12-0.24,0.2-0.34
			c0.09-0.1,0.2-0.17,0.32-0.23c0.13-0.06,0.27-0.08,0.43-0.08c0.13,0,0.26,0.02,0.37,0.06c0.11,0.04,0.21,0.11,0.29,0.19
			c0.08,0.08,0.15,0.18,0.19,0.3c0.05,0.12,0.07,0.26,0.07,0.41c0,0.08-0.01,0.13-0.03,0.16c-0.02,0.03-0.05,0.04-0.1,0.04H46.61z
			 M47.6,24.35c0-0.07-0.01-0.13-0.03-0.19c-0.02-0.06-0.05-0.11-0.08-0.16c-0.04-0.04-0.09-0.08-0.14-0.11
			c-0.06-0.03-0.12-0.04-0.2-0.04c-0.15,0-0.27,0.04-0.35,0.13c-0.09,0.08-0.14,0.21-0.16,0.36H47.6z"/>
	</g>
	<g>
		<path class="st1" d="M48.44,25.67v-2.14h0.31c0.07,0,0.11,0.03,0.13,0.09l0.03,0.16c0.04-0.04,0.08-0.08,0.12-0.11
			c0.04-0.03,0.08-0.06,0.13-0.09c0.05-0.02,0.1-0.04,0.15-0.06c0.05-0.01,0.11-0.02,0.18-0.02c0.13,0,0.25,0.04,0.33,0.11
			s0.15,0.17,0.19,0.29c0.03-0.07,0.08-0.13,0.13-0.18s0.1-0.09,0.16-0.12c0.06-0.03,0.12-0.06,0.19-0.07
			c0.07-0.02,0.14-0.02,0.2-0.02c0.12,0,0.22,0.02,0.31,0.05c0.09,0.04,0.17,0.09,0.23,0.16c0.06,0.07,0.11,0.15,0.14,0.25
			c0.03,0.1,0.05,0.21,0.05,0.34v1.36h-0.51V24.3c0-0.14-0.03-0.24-0.09-0.31c-0.06-0.07-0.15-0.1-0.26-0.1
			c-0.05,0-0.1,0.01-0.15,0.03c-0.05,0.02-0.08,0.04-0.12,0.08c-0.03,0.03-0.06,0.08-0.08,0.13c-0.02,0.05-0.03,0.11-0.03,0.18v1.36
			h-0.52V24.3c0-0.14-0.03-0.25-0.09-0.31c-0.06-0.07-0.14-0.1-0.25-0.1c-0.08,0-0.14,0.02-0.21,0.06
			c-0.06,0.04-0.12,0.09-0.18,0.15v1.57H48.44z"/>
	</g>
	<g>
		<path class="st1" d="M52.35,24.66c0.01,0.11,0.03,0.2,0.06,0.28c0.03,0.08,0.07,0.15,0.12,0.2c0.05,0.05,0.11,0.09,0.18,0.12
			c0.07,0.03,0.14,0.04,0.23,0.04c0.08,0,0.16-0.01,0.22-0.03c0.06-0.02,0.11-0.04,0.16-0.06c0.05-0.02,0.08-0.05,0.12-0.06
			c0.03-0.02,0.07-0.03,0.1-0.03c0.04,0,0.08,0.02,0.1,0.05l0.15,0.19c-0.06,0.07-0.12,0.12-0.19,0.17
			c-0.07,0.05-0.14,0.08-0.22,0.11c-0.08,0.03-0.16,0.05-0.24,0.06c-0.08,0.01-0.16,0.02-0.23,0.02c-0.15,0-0.29-0.02-0.41-0.07
			c-0.13-0.05-0.24-0.12-0.33-0.22c-0.09-0.1-0.17-0.22-0.22-0.36c-0.05-0.14-0.08-0.31-0.08-0.5c0-0.15,0.02-0.28,0.07-0.41
			c0.05-0.13,0.11-0.24,0.2-0.34c0.09-0.1,0.2-0.17,0.32-0.23c0.13-0.06,0.27-0.08,0.43-0.08c0.13,0,0.26,0.02,0.37,0.06
			c0.11,0.04,0.21,0.11,0.29,0.19c0.08,0.08,0.15,0.18,0.19,0.3s0.07,0.26,0.07,0.41c0,0.08-0.01,0.13-0.02,0.16
			c-0.02,0.03-0.05,0.04-0.1,0.04H52.35z M53.33,24.35c0-0.07-0.01-0.13-0.03-0.19c-0.02-0.06-0.05-0.11-0.08-0.16
			c-0.04-0.04-0.09-0.08-0.14-0.11c-0.06-0.03-0.12-0.04-0.2-0.04c-0.15,0-0.27,0.04-0.35,0.13c-0.09,0.08-0.14,0.21-0.16,0.36
			H53.33z"/>
	</g>
	<g>
		<path class="st1" d="M54.66,23.79c0.04-0.04,0.09-0.08,0.14-0.12c0.05-0.04,0.1-0.07,0.15-0.09c0.05-0.03,0.11-0.05,0.17-0.06
			c0.06-0.01,0.13-0.02,0.2-0.02c0.12,0,0.22,0.02,0.31,0.06c0.09,0.04,0.17,0.1,0.23,0.17c0.06,0.07,0.11,0.16,0.14,0.26
			s0.05,0.21,0.05,0.33v1.36h-0.51V24.3c0-0.13-0.03-0.23-0.09-0.3c-0.06-0.07-0.15-0.11-0.27-0.11c-0.09,0-0.17,0.02-0.25,0.06
			c-0.08,0.04-0.15,0.1-0.22,0.16v1.55h-0.51v-2.14h0.31c0.07,0,0.11,0.03,0.13,0.09L54.66,23.79z"/>
	</g>
	<g>
		<path class="st1" d="M57.26,25.7c-0.19,0-0.33-0.05-0.43-0.16c-0.1-0.1-0.15-0.25-0.15-0.43v-1.19h-0.22
			c-0.03,0-0.05-0.01-0.07-0.03c-0.02-0.02-0.03-0.05-0.03-0.08v-0.2l0.34-0.06l0.11-0.58c0.01-0.03,0.02-0.05,0.04-0.06
			c0.02-0.02,0.04-0.02,0.08-0.02h0.27v0.67h0.57v0.37h-0.57v1.16c0,0.07,0.02,0.12,0.05,0.16c0.03,0.04,0.08,0.06,0.13,0.06
			c0.03,0,0.06,0,0.08-0.01c0.02-0.01,0.04-0.02,0.06-0.02s0.03-0.02,0.04-0.02c0.01-0.01,0.02-0.01,0.04-0.01
			c0.02,0,0.03,0,0.04,0.01s0.02,0.02,0.03,0.03l0.15,0.25c-0.08,0.06-0.16,0.11-0.26,0.14C57.46,25.68,57.36,25.7,57.26,25.7z"/>
	</g>
	<g>
		<path class="st1" d="M61.62,25.67h-0.43c-0.05,0-0.09-0.01-0.12-0.04c-0.03-0.02-0.05-0.05-0.07-0.09l-0.23-0.61h-1.25l-0.23,0.61
			c-0.01,0.03-0.03,0.06-0.06,0.09s-0.07,0.04-0.12,0.04h-0.44l1.19-3.01h0.57L61.62,25.67z M60.63,24.53l-0.37-1
			c-0.02-0.04-0.04-0.1-0.06-0.16c-0.02-0.06-0.04-0.13-0.06-0.2c-0.02,0.07-0.04,0.14-0.06,0.2c-0.02,0.06-0.04,0.12-0.06,0.16
			l-0.36,1H60.63z"/>
	</g>
	<g>
		<path class="st1" d="M63.79,23.6v0.19c0,0.06-0.04,0.1-0.11,0.11l-0.19,0.04c0.03,0.07,0.04,0.15,0.04,0.24
			c0,0.11-0.02,0.2-0.06,0.29c-0.04,0.09-0.1,0.16-0.18,0.22c-0.08,0.06-0.16,0.11-0.27,0.14c-0.1,0.03-0.21,0.05-0.33,0.05
			c-0.04,0-0.08,0-0.12-0.01c-0.04,0-0.08-0.01-0.11-0.02c-0.07,0.04-0.1,0.09-0.1,0.14c0,0.04,0.02,0.07,0.06,0.09
			c0.04,0.02,0.09,0.03,0.16,0.04c0.07,0.01,0.14,0.01,0.22,0.02c0.08,0,0.17,0.01,0.26,0.01c0.09,0.01,0.17,0.02,0.26,0.04
			c0.08,0.02,0.16,0.04,0.22,0.08c0.07,0.04,0.12,0.09,0.16,0.15c0.04,0.06,0.06,0.15,0.06,0.25c0,0.09-0.02,0.19-0.07,0.28
			c-0.05,0.09-0.11,0.17-0.2,0.24c-0.09,0.07-0.2,0.13-0.33,0.17c-0.13,0.04-0.27,0.06-0.44,0.06c-0.16,0-0.3-0.02-0.42-0.05
			c-0.12-0.03-0.22-0.07-0.3-0.12c-0.08-0.05-0.14-0.11-0.18-0.18s-0.06-0.14-0.06-0.21c0-0.1,0.03-0.18,0.09-0.25
			c0.06-0.07,0.14-0.12,0.25-0.16c-0.06-0.03-0.1-0.07-0.14-0.12c-0.03-0.05-0.05-0.11-0.05-0.19c0-0.03,0.01-0.06,0.02-0.1
			c0.01-0.03,0.03-0.07,0.05-0.1c0.02-0.03,0.05-0.06,0.09-0.09c0.03-0.03,0.08-0.06,0.12-0.08c-0.11-0.06-0.19-0.14-0.26-0.23
			c-0.06-0.1-0.09-0.21-0.09-0.34c0-0.11,0.02-0.2,0.06-0.29c0.04-0.09,0.1-0.16,0.18-0.22c0.08-0.06,0.17-0.11,0.27-0.14
			c0.1-0.03,0.22-0.05,0.34-0.05c0.09,0,0.18,0.01,0.26,0.03c0.08,0.02,0.15,0.05,0.22,0.08H63.79z M63.28,25.76
			c0-0.04-0.01-0.08-0.04-0.1c-0.02-0.03-0.06-0.05-0.1-0.06c-0.04-0.01-0.09-0.03-0.15-0.03c-0.06-0.01-0.12-0.01-0.18-0.02
			c-0.06,0-0.13-0.01-0.2-0.01c-0.07,0-0.14-0.01-0.2-0.02c-0.06,0.03-0.1,0.07-0.14,0.11c-0.04,0.04-0.05,0.09-0.05,0.15
			c0,0.04,0.01,0.07,0.03,0.11c0.02,0.03,0.05,0.06,0.09,0.08c0.04,0.02,0.09,0.04,0.16,0.06c0.07,0.01,0.15,0.02,0.24,0.02
			c0.1,0,0.18-0.01,0.25-0.02c0.07-0.01,0.13-0.03,0.17-0.06c0.05-0.03,0.08-0.06,0.1-0.09C63.27,25.84,63.28,25.8,63.28,25.76z
			 M62.7,24.54c0.06,0,0.12-0.01,0.17-0.03c0.05-0.02,0.09-0.04,0.12-0.07c0.03-0.03,0.05-0.07,0.07-0.11
			c0.02-0.04,0.02-0.09,0.02-0.14c0-0.11-0.03-0.19-0.09-0.25c-0.06-0.06-0.16-0.09-0.28-0.09c-0.13,0-0.22,0.03-0.28,0.09
			c-0.06,0.06-0.09,0.15-0.09,0.25c0,0.05,0.01,0.1,0.02,0.14s0.04,0.08,0.07,0.11c0.03,0.03,0.07,0.06,0.12,0.07
			S62.64,24.54,62.7,24.54z"/>
	</g>
	<g>
		<path class="st1" d="M64.47,24.66c0.01,0.11,0.03,0.2,0.06,0.28c0.03,0.08,0.07,0.15,0.12,0.2c0.05,0.05,0.11,0.09,0.18,0.12
			c0.07,0.03,0.14,0.04,0.23,0.04c0.08,0,0.16-0.01,0.22-0.03c0.06-0.02,0.11-0.04,0.16-0.06c0.05-0.02,0.08-0.05,0.12-0.06
			c0.03-0.02,0.07-0.03,0.1-0.03c0.04,0,0.08,0.02,0.1,0.05l0.15,0.19c-0.06,0.07-0.12,0.12-0.19,0.17
			c-0.07,0.05-0.14,0.08-0.22,0.11c-0.08,0.03-0.16,0.05-0.24,0.06c-0.08,0.01-0.16,0.02-0.23,0.02c-0.15,0-0.29-0.02-0.41-0.07
			c-0.13-0.05-0.24-0.12-0.33-0.22c-0.09-0.1-0.17-0.22-0.22-0.36c-0.05-0.14-0.08-0.31-0.08-0.5c0-0.15,0.02-0.28,0.07-0.41
			c0.05-0.13,0.11-0.24,0.2-0.34c0.09-0.1,0.2-0.17,0.32-0.23c0.13-0.06,0.27-0.08,0.43-0.08c0.13,0,0.26,0.02,0.37,0.06
			c0.11,0.04,0.21,0.11,0.29,0.19c0.08,0.08,0.15,0.18,0.19,0.3c0.05,0.12,0.07,0.26,0.07,0.41c0,0.08-0.01,0.13-0.02,0.16
			c-0.02,0.03-0.05,0.04-0.1,0.04H64.47z M65.45,24.35c0-0.07-0.01-0.13-0.03-0.19c-0.02-0.06-0.05-0.11-0.08-0.16
			c-0.04-0.04-0.09-0.08-0.14-0.11c-0.06-0.03-0.12-0.04-0.2-0.04c-0.15,0-0.27,0.04-0.35,0.13c-0.09,0.08-0.14,0.21-0.16,0.36
			H65.45z"/>
	</g>
	<g>
		<path class="st1" d="M66.78,23.79c0.04-0.04,0.09-0.08,0.14-0.12c0.05-0.04,0.1-0.07,0.15-0.09c0.05-0.03,0.11-0.05,0.17-0.06
			c0.06-0.01,0.13-0.02,0.2-0.02c0.12,0,0.22,0.02,0.31,0.06c0.09,0.04,0.17,0.1,0.23,0.17c0.06,0.07,0.11,0.16,0.14,0.26
			s0.05,0.21,0.05,0.33v1.36h-0.51V24.3c0-0.13-0.03-0.23-0.09-0.3c-0.06-0.07-0.15-0.11-0.27-0.11c-0.09,0-0.17,0.02-0.25,0.06
			c-0.08,0.04-0.15,0.1-0.22,0.16v1.55H66.3v-2.14h0.31c0.07,0,0.11,0.03,0.13,0.09L66.78,23.79z"/>
	</g>
	<g>
		<path class="st1" d="M70.2,23.98c-0.02,0.02-0.03,0.03-0.04,0.05c-0.01,0.01-0.04,0.02-0.06,0.02c-0.03,0-0.05-0.01-0.08-0.02
			c-0.02-0.02-0.05-0.03-0.09-0.05c-0.03-0.02-0.08-0.04-0.12-0.05c-0.05-0.02-0.11-0.02-0.18-0.02c-0.09,0-0.17,0.02-0.24,0.05
			c-0.07,0.03-0.12,0.08-0.17,0.14c-0.05,0.06-0.08,0.14-0.1,0.22c-0.02,0.09-0.03,0.19-0.03,0.3c0,0.11,0.01,0.22,0.04,0.3
			c0.02,0.09,0.06,0.16,0.11,0.22c0.05,0.06,0.1,0.11,0.17,0.14c0.07,0.03,0.14,0.05,0.22,0.05c0.08,0,0.15-0.01,0.2-0.03
			c0.05-0.02,0.09-0.04,0.13-0.07c0.03-0.02,0.07-0.05,0.09-0.07c0.03-0.02,0.05-0.03,0.09-0.03c0.04,0,0.07,0.02,0.09,0.05
			l0.15,0.19c-0.06,0.07-0.12,0.12-0.19,0.17c-0.07,0.05-0.14,0.08-0.21,0.11c-0.07,0.03-0.15,0.05-0.22,0.06
			c-0.08,0.01-0.15,0.02-0.23,0.02c-0.13,0-0.26-0.02-0.37-0.07c-0.12-0.05-0.22-0.12-0.31-0.22c-0.09-0.09-0.16-0.21-0.21-0.35
			c-0.05-0.14-0.08-0.29-0.08-0.47c0-0.16,0.02-0.3,0.07-0.44c0.05-0.13,0.11-0.25,0.2-0.35c0.09-0.1,0.2-0.17,0.33-0.23
			c0.13-0.06,0.28-0.08,0.45-0.08c0.16,0,0.3,0.03,0.42,0.08c0.12,0.05,0.23,0.13,0.32,0.22L70.2,23.98z"/>
	</g>
	<g>
		<path class="st1" d="M72.59,23.53l-1.17,2.73c-0.02,0.04-0.04,0.06-0.06,0.08c-0.02,0.02-0.06,0.03-0.11,0.03h-0.38l0.4-0.86
			l-0.87-1.98h0.45c0.04,0,0.07,0.01,0.09,0.03c0.02,0.02,0.04,0.04,0.05,0.07l0.45,1.11c0.02,0.04,0.03,0.08,0.04,0.11
			s0.02,0.08,0.03,0.11c0.01-0.04,0.02-0.08,0.04-0.12c0.01-0.04,0.03-0.08,0.04-0.11l0.43-1.11c0.01-0.03,0.03-0.05,0.06-0.07
			c0.03-0.02,0.05-0.03,0.09-0.03H72.59z"/>
	</g>
</g>
</svg>
